<?xml version="1.0" standalone="no"?>
<!DOCTYPE svg PUBLIC "-//W3C//DTD SVG 20010904//EN"
 "http://www.w3.org/TR/2001/REC-SVG-20010904/DTD/svg10.dtd">
<svg version="1.0" xmlns="http://www.w3.org/2000/svg"
 width="900.000000pt" height="900.000000pt" viewBox="0 0 900.000000 900.000000"
 preserveAspectRatio="xMidYMid meet">
<metadata>
Created by potrace 1.15, written by Peter Selinger 2001-2017
</metadata>
<g transform="translate(0.000000,900.000000) scale(0.100000,-0.100000)"
fill="#000000" stroke="none">
<path d="M2280 6958 c-14 -7 -45 -20 -69 -31 -57 -24 -123 -94 -158 -165 l-28
-57 0 -2215 0 -2215 28 -57 c52 -102 143 -171 265 -197 73 -15 4287 -16 4364
0 118 24 214 95 265 197 l28 57 0 2215 0 2215 -28 58 c-42 85 -111 149 -194
181 l-68 26 -2190 -1 c-1581 0 -2197 -3 -2215 -11z m912 -669 c124 -25 236
-101 296 -202 143 -238 29 -544 -236 -632 -42 -13 -76 -16 -150 -13 -121 6
-182 31 -270 113 -145 134 -181 331 -91 507 53 104 177 197 297 223 74 17 91
17 154 4z m2356 -1124 c157 -25 289 -74 380 -142 138 -103 238 -277 282 -490
35 -164 39 -267 39 -1024 1 -685 0 -757 -15 -763 -8 -3 -172 -6 -364 -6 -274
0 -350 3 -358 13 -8 9 -11 224 -12 705 0 390 -4 712 -10 739 -45 229 -152 323
-368 323 -184 0 -320 -85 -378 -235 -38 -100 -37 -90 -41 -817 -3 -572 -6
-708 -17 -717 -9 -8 -122 -10 -372 -9 l-359 3 0 1185 0 1185 350 0 350 0 3
-152 c2 -150 9 -176 33 -131 6 12 22 33 35 47 13 14 24 29 24 33 0 4 33 36 74
70 191 163 443 227 724 183z m-2060 -57 c19 -19 17 -2341 -2 -2357 -9 -8 -116
-11 -372 -9 l-359 3 -3 1175 c-1 646 0 1181 3 1188 6 17 715 18 733 0z"/>
</g>
</svg>
